# xmcd
#
# Track frame offsets:
#	150
#	23412
#	57027
#	83237
#	106965
#	122340
#	147732
#	175150
#	219062
#	236087
#	258915
#	272965
#	294880
#	319812
#
# Disc length: 4558
#
# Revision: 5
# Processed by: cddbd v1.5.1PL0 Copyright (c) Steve Scherf et al.
# Submitted via: CDex 1.50
# Normalized: r4:DSETVAR1,TDELIM( - )
#
DISCID=bd11cc0e
DTITLE=Various Artist - Jazz Showcase
DYEAR=1900
DGENRE=Jazz
TTITLE0=Count Basie Orchestra - Basie
TTITLE1=Oscar Peterson - Reunion Blues
TTITLE2=Dave Brubeck - So Wistfully Sad
TTITLE3=Bobby Short - Gone with the Wind
TTITLE4=Joe Pass - Jo-Wes
TTITLE5=Gerry Mulligan with Jane Duboc - Paraiso
TTITLE6=Hilton Ruiz - Little Suede Shoes
TTITLE7=Slide Hampton and The JazzMasters - Tour De Force
TTITLE8=Joe Williams duet with George Shearing - Here's to Life
TTITLE9=George Shearing - Birdfeathers
TTITLE10=Mel Torme - I'm Gonna Go Fishin'
TTITLE11=Ray Brown Trio - In the Wee Small Hours of the Morning
TTITLE12=Jeanie Bryson - Bittersweet
TTITLE13=Ahmad Jamal - Lullaby of Birdland
EXTD=
EXTT0=
EXTT1=
EXTT2=
EXTT3=
EXTT4=
EXTT5=
EXTT6=
EXTT7=
EXTT8=
EXTT9=
EXTT10=
EXTT11=
EXTT12=
EXTT13=
PLAYORDER=
